<mxfile host="Electron" modified="2024-07-20T18:59:05.311Z" agent="Mozilla/5.0 (Macintosh; Intel Mac OS X 10_15_7) AppleWebKit/537.36 (KHTML, like Gecko) draw.io/22.0.3 Chrome/114.0.5735.289 Electron/25.8.4 Safari/537.36" etag="JGTiHYnE0bVlGT53rrjX" version="22.0.3" type="device">
  <diagram name="Page-1" id="jOAKKqt83-95iI3XRkkc">
    <mxGraphModel dx="1114" dy="999" grid="1" gridSize="10" guides="1" tooltips="1" connect="1" arrows="1" fold="1" page="1" pageScale="1" pageWidth="827" pageHeight="1169" math="0" shadow="0">
      <root>
        <mxCell id="0" />
        <mxCell id="1" parent="0" />
        <mxCell id="J3xcKLLVkfX4c4wHD3-W-6" value="" style="edgeStyle=orthogonalEdgeStyle;rounded=0;orthogonalLoop=1;jettySize=auto;html=1;" edge="1" parent="1" source="J3xcKLLVkfX4c4wHD3-W-1" target="J3xcKLLVkfX4c4wHD3-W-5">
          <mxGeometry relative="1" as="geometry" />
        </mxCell>
        <mxCell id="J3xcKLLVkfX4c4wHD3-W-1" value="Website loads" style="rounded=0;whiteSpace=wrap;html=1;fillColor=#dae8fc;strokeColor=#6c8ebf;" vertex="1" parent="1">
          <mxGeometry x="310" y="20" width="120" height="60" as="geometry" />
        </mxCell>
        <mxCell id="J3xcKLLVkfX4c4wHD3-W-8" value="" style="edgeStyle=orthogonalEdgeStyle;rounded=0;orthogonalLoop=1;jettySize=auto;html=1;exitX=0.5;exitY=1;exitDx=0;exitDy=0;" edge="1" parent="1" source="J3xcKLLVkfX4c4wHD3-W-5" target="J3xcKLLVkfX4c4wHD3-W-7">
          <mxGeometry relative="1" as="geometry">
            <mxPoint x="250" y="200" as="sourcePoint" />
          </mxGeometry>
        </mxCell>
        <mxCell id="J3xcKLLVkfX4c4wHD3-W-5" value="User selects a book" style="whiteSpace=wrap;html=1;rounded=0;fillColor=#dae8fc;strokeColor=#6c8ebf;" vertex="1" parent="1">
          <mxGeometry x="310" y="130" width="120" height="60" as="geometry" />
        </mxCell>
        <mxCell id="J3xcKLLVkfX4c4wHD3-W-10" value="" style="edgeStyle=orthogonalEdgeStyle;rounded=0;orthogonalLoop=1;jettySize=auto;html=1;" edge="1" parent="1" source="J3xcKLLVkfX4c4wHD3-W-7" target="J3xcKLLVkfX4c4wHD3-W-9">
          <mxGeometry relative="1" as="geometry" />
        </mxCell>
        <mxCell id="J3xcKLLVkfX4c4wHD3-W-31" value="" style="edgeStyle=orthogonalEdgeStyle;rounded=0;orthogonalLoop=1;jettySize=auto;html=1;" edge="1" parent="1" source="J3xcKLLVkfX4c4wHD3-W-7" target="J3xcKLLVkfX4c4wHD3-W-30">
          <mxGeometry relative="1" as="geometry" />
        </mxCell>
        <mxCell id="J3xcKLLVkfX4c4wHD3-W-39" value="" style="edgeStyle=orthogonalEdgeStyle;rounded=0;orthogonalLoop=1;jettySize=auto;html=1;" edge="1" parent="1" source="J3xcKLLVkfX4c4wHD3-W-7" target="J3xcKLLVkfX4c4wHD3-W-30">
          <mxGeometry relative="1" as="geometry" />
        </mxCell>
        <mxCell id="J3xcKLLVkfX4c4wHD3-W-59" style="edgeStyle=orthogonalEdgeStyle;rounded=0;orthogonalLoop=1;jettySize=auto;html=1;exitX=0.509;exitY=1.006;exitDx=0;exitDy=0;entryX=0.5;entryY=0;entryDx=0;entryDy=0;exitPerimeter=0;" edge="1" parent="1">
          <mxGeometry relative="1" as="geometry">
            <mxPoint x="370.99" y="360" as="sourcePoint" />
            <mxPoint x="560" y="399.34" as="targetPoint" />
          </mxGeometry>
        </mxCell>
        <mxCell id="J3xcKLLVkfX4c4wHD3-W-7" value="Is user&lt;br&gt;logged in?" style="rhombus;whiteSpace=wrap;html=1;rounded=0;fillColor=#f8cecc;strokeColor=#b85450;" vertex="1" parent="1">
          <mxGeometry x="315" y="250" width="110" height="110" as="geometry" />
        </mxCell>
        <mxCell id="J3xcKLLVkfX4c4wHD3-W-60" style="edgeStyle=orthogonalEdgeStyle;rounded=0;orthogonalLoop=1;jettySize=auto;html=1;entryX=0;entryY=1;entryDx=0;entryDy=0;exitX=0.5;exitY=1;exitDx=0;exitDy=0;" edge="1" parent="1" source="J3xcKLLVkfX4c4wHD3-W-9">
          <mxGeometry relative="1" as="geometry">
            <mxPoint x="70" y="315" as="sourcePoint" />
            <mxPoint x="395" y="1140" as="targetPoint" />
            <Array as="points">
              <mxPoint x="70" y="1140" />
            </Array>
          </mxGeometry>
        </mxCell>
        <mxCell id="J3xcKLLVkfX4c4wHD3-W-9" value="User can&#39;t write a review, like a book or rate a book&amp;nbsp;" style="whiteSpace=wrap;html=1;rounded=0;fillColor=#dae8fc;strokeColor=#6c8ebf;" vertex="1" parent="1">
          <mxGeometry x="10" y="275" width="120" height="60" as="geometry" />
        </mxCell>
        <mxCell id="J3xcKLLVkfX4c4wHD3-W-14" value="" style="edgeStyle=orthogonalEdgeStyle;rounded=0;orthogonalLoop=1;jettySize=auto;html=1;" edge="1" parent="1" source="J3xcKLLVkfX4c4wHD3-W-11" target="J3xcKLLVkfX4c4wHD3-W-13">
          <mxGeometry relative="1" as="geometry" />
        </mxCell>
        <mxCell id="J3xcKLLVkfX4c4wHD3-W-11" value="User writes a review" style="whiteSpace=wrap;html=1;rounded=0;fillColor=#d5e8d4;strokeColor=#82b366;" vertex="1" parent="1">
          <mxGeometry x="150" y="400" width="120" height="60" as="geometry" />
        </mxCell>
        <mxCell id="J3xcKLLVkfX4c4wHD3-W-55" style="edgeStyle=orthogonalEdgeStyle;rounded=0;orthogonalLoop=1;jettySize=auto;html=1;entryX=0;entryY=0.5;entryDx=0;entryDy=0;" edge="1" parent="1" source="J3xcKLLVkfX4c4wHD3-W-13" target="J3xcKLLVkfX4c4wHD3-W-17">
          <mxGeometry relative="1" as="geometry" />
        </mxCell>
        <mxCell id="J3xcKLLVkfX4c4wHD3-W-13" value="User clicks on Submit" style="whiteSpace=wrap;html=1;rounded=0;fillColor=#dae8fc;strokeColor=#6c8ebf;" vertex="1" parent="1">
          <mxGeometry x="150" y="500" width="120" height="60" as="geometry" />
        </mxCell>
        <mxCell id="J3xcKLLVkfX4c4wHD3-W-20" value="" style="edgeStyle=orthogonalEdgeStyle;rounded=0;orthogonalLoop=1;jettySize=auto;html=1;" edge="1" parent="1" source="J3xcKLLVkfX4c4wHD3-W-17" target="J3xcKLLVkfX4c4wHD3-W-19">
          <mxGeometry relative="1" as="geometry" />
        </mxCell>
        <mxCell id="J3xcKLLVkfX4c4wHD3-W-17" value="All Inputs&amp;nbsp;&lt;br&gt;are OK" style="rhombus;whiteSpace=wrap;html=1;rounded=0;fillColor=#f8cecc;strokeColor=#b85450;" vertex="1" parent="1">
          <mxGeometry x="250" y="605" width="80" height="80" as="geometry" />
        </mxCell>
        <mxCell id="J3xcKLLVkfX4c4wHD3-W-24" value="" style="edgeStyle=orthogonalEdgeStyle;rounded=0;orthogonalLoop=1;jettySize=auto;html=1;" edge="1" parent="1" source="J3xcKLLVkfX4c4wHD3-W-19" target="J3xcKLLVkfX4c4wHD3-W-23">
          <mxGeometry relative="1" as="geometry" />
        </mxCell>
        <mxCell id="J3xcKLLVkfX4c4wHD3-W-19" value="Save Review in Data base" style="whiteSpace=wrap;html=1;rounded=0;fillColor=#dae8fc;strokeColor=#6c8ebf;" vertex="1" parent="1">
          <mxGeometry x="230" y="725" width="120" height="60" as="geometry" />
        </mxCell>
        <mxCell id="J3xcKLLVkfX4c4wHD3-W-26" value="" style="edgeStyle=orthogonalEdgeStyle;rounded=0;orthogonalLoop=1;jettySize=auto;html=1;" edge="1" parent="1" source="J3xcKLLVkfX4c4wHD3-W-23" target="J3xcKLLVkfX4c4wHD3-W-25">
          <mxGeometry relative="1" as="geometry" />
        </mxCell>
        <mxCell id="J3xcKLLVkfX4c4wHD3-W-23" value="Is review&lt;br&gt;approved?" style="rhombus;whiteSpace=wrap;html=1;rounded=0;fillColor=#f8cecc;strokeColor=#b85450;" vertex="1" parent="1">
          <mxGeometry x="250" y="835" width="80" height="80" as="geometry" />
        </mxCell>
        <mxCell id="J3xcKLLVkfX4c4wHD3-W-28" value="" style="edgeStyle=orthogonalEdgeStyle;rounded=0;orthogonalLoop=1;jettySize=auto;html=1;" edge="1" parent="1" source="J3xcKLLVkfX4c4wHD3-W-25" target="J3xcKLLVkfX4c4wHD3-W-27">
          <mxGeometry relative="1" as="geometry">
            <Array as="points">
              <mxPoint x="290" y="1110" />
            </Array>
          </mxGeometry>
        </mxCell>
        <mxCell id="J3xcKLLVkfX4c4wHD3-W-25" value="Show to all visitors" style="whiteSpace=wrap;html=1;rounded=0;fillColor=#dae8fc;strokeColor=#6c8ebf;" vertex="1" parent="1">
          <mxGeometry x="230" y="975" width="120" height="60" as="geometry" />
        </mxCell>
        <mxCell id="J3xcKLLVkfX4c4wHD3-W-27" value="Finish" style="whiteSpace=wrap;html=1;rounded=0;fillColor=#dae8fc;strokeColor=#6c8ebf;" vertex="1" parent="1">
          <mxGeometry x="380" y="1080" width="120" height="60" as="geometry" />
        </mxCell>
        <mxCell id="J3xcKLLVkfX4c4wHD3-W-33" value="" style="edgeStyle=orthogonalEdgeStyle;rounded=0;orthogonalLoop=1;jettySize=auto;html=1;" edge="1" parent="1" source="J3xcKLLVkfX4c4wHD3-W-30" target="J3xcKLLVkfX4c4wHD3-W-32">
          <mxGeometry relative="1" as="geometry" />
        </mxCell>
        <mxCell id="J3xcKLLVkfX4c4wHD3-W-30" value="Can Edit his own Review" style="whiteSpace=wrap;html=1;rounded=0;fillColor=#d5e8d4;strokeColor=#82b366;" vertex="1" parent="1">
          <mxGeometry x="310" y="400" width="120" height="60" as="geometry" />
        </mxCell>
        <mxCell id="J3xcKLLVkfX4c4wHD3-W-38" style="edgeStyle=orthogonalEdgeStyle;rounded=0;orthogonalLoop=1;jettySize=auto;html=1;entryX=1;entryY=0.5;entryDx=0;entryDy=0;" edge="1" parent="1" source="J3xcKLLVkfX4c4wHD3-W-32" target="J3xcKLLVkfX4c4wHD3-W-17">
          <mxGeometry relative="1" as="geometry" />
        </mxCell>
        <mxCell id="J3xcKLLVkfX4c4wHD3-W-32" value="Clicks on Update&lt;br&gt;Button" style="whiteSpace=wrap;html=1;rounded=0;fillColor=#dae8fc;strokeColor=#6c8ebf;" vertex="1" parent="1">
          <mxGeometry x="310" y="500" width="120" height="60" as="geometry" />
        </mxCell>
        <mxCell id="J3xcKLLVkfX4c4wHD3-W-42" value="" style="edgeStyle=orthogonalEdgeStyle;rounded=0;orthogonalLoop=1;jettySize=auto;html=1;" edge="1" parent="1" source="J3xcKLLVkfX4c4wHD3-W-40" target="J3xcKLLVkfX4c4wHD3-W-41">
          <mxGeometry relative="1" as="geometry" />
        </mxCell>
        <mxCell id="J3xcKLLVkfX4c4wHD3-W-40" value="Can DELETE his/her&lt;br&gt;Review" style="rounded=0;whiteSpace=wrap;html=1;fillColor=#d5e8d4;strokeColor=#82b366;" vertex="1" parent="1">
          <mxGeometry x="490" y="400" width="120" height="60" as="geometry" />
        </mxCell>
        <mxCell id="J3xcKLLVkfX4c4wHD3-W-44" value="" style="edgeStyle=orthogonalEdgeStyle;rounded=0;orthogonalLoop=1;jettySize=auto;html=1;" edge="1" parent="1" source="J3xcKLLVkfX4c4wHD3-W-41" target="J3xcKLLVkfX4c4wHD3-W-43">
          <mxGeometry relative="1" as="geometry" />
        </mxCell>
        <mxCell id="J3xcKLLVkfX4c4wHD3-W-41" value="Is user sure&lt;br&gt;about DELETE?" style="rhombus;whiteSpace=wrap;html=1;rounded=0;fillColor=#f8cecc;strokeColor=#b85450;" vertex="1" parent="1">
          <mxGeometry x="480" y="560" width="140" height="140" as="geometry" />
        </mxCell>
        <mxCell id="J3xcKLLVkfX4c4wHD3-W-46" value="" style="edgeStyle=orthogonalEdgeStyle;rounded=0;orthogonalLoop=1;jettySize=auto;html=1;" edge="1" parent="1" source="J3xcKLLVkfX4c4wHD3-W-43" target="J3xcKLLVkfX4c4wHD3-W-45">
          <mxGeometry relative="1" as="geometry" />
        </mxCell>
        <mxCell id="J3xcKLLVkfX4c4wHD3-W-43" value="User clicked Yes" style="whiteSpace=wrap;html=1;rounded=0;fillColor=#dae8fc;strokeColor=#6c8ebf;" vertex="1" parent="1">
          <mxGeometry x="490" y="725" width="120" height="60" as="geometry" />
        </mxCell>
        <mxCell id="J3xcKLLVkfX4c4wHD3-W-48" value="" style="edgeStyle=orthogonalEdgeStyle;rounded=0;orthogonalLoop=1;jettySize=auto;html=1;" edge="1" parent="1" source="J3xcKLLVkfX4c4wHD3-W-45" target="J3xcKLLVkfX4c4wHD3-W-47">
          <mxGeometry relative="1" as="geometry" />
        </mxCell>
        <mxCell id="J3xcKLLVkfX4c4wHD3-W-45" value="Selected Review&amp;nbsp;&lt;br&gt;will be Deleted" style="whiteSpace=wrap;html=1;rounded=0;fillColor=#dae8fc;strokeColor=#6c8ebf;" vertex="1" parent="1">
          <mxGeometry x="490" y="855" width="120" height="60" as="geometry" />
        </mxCell>
        <mxCell id="J3xcKLLVkfX4c4wHD3-W-58" style="edgeStyle=orthogonalEdgeStyle;rounded=0;orthogonalLoop=1;jettySize=auto;html=1;entryX=1;entryY=0.5;entryDx=0;entryDy=0;" edge="1" parent="1" source="J3xcKLLVkfX4c4wHD3-W-47" target="J3xcKLLVkfX4c4wHD3-W-27">
          <mxGeometry relative="1" as="geometry" />
        </mxCell>
        <mxCell id="J3xcKLLVkfX4c4wHD3-W-47" value="Page is refreshed" style="whiteSpace=wrap;html=1;rounded=0;fillColor=#dae8fc;strokeColor=#6c8ebf;" vertex="1" parent="1">
          <mxGeometry x="490" y="975" width="120" height="60" as="geometry" />
        </mxCell>
        <mxCell id="J3xcKLLVkfX4c4wHD3-W-52" value="&lt;h1 style=&quot;font-size: 30px;&quot;&gt;&lt;span style=&quot;background-color: rgb(255, 255, 51);&quot;&gt;&lt;font style=&quot;font-size: 30px;&quot; color=&quot;#0000ff&quot;&gt;CRUD on Review Model&amp;nbsp;&amp;nbsp;&lt;/font&gt;&lt;/span&gt;&lt;/h1&gt;&lt;p style=&quot;font-size: 30px;&quot;&gt;&lt;font style=&quot;font-size: 30px;&quot;&gt;&lt;font style=&quot;font-size: 30px;&quot;&gt;Reading all approved review, Writing a new review, Updating an existing review and Deleting are all done in one Mode&lt;/font&gt;l.&lt;/font&gt;&lt;/p&gt;" style="text;html=1;strokeColor=none;fillColor=none;spacing=5;spacingTop=-20;whiteSpace=wrap;overflow=hidden;rounded=0;" vertex="1" parent="1">
          <mxGeometry x="440" y="10" width="370" height="300" as="geometry" />
        </mxCell>
        <mxCell id="J3xcKLLVkfX4c4wHD3-W-57" style="edgeStyle=orthogonalEdgeStyle;rounded=0;orthogonalLoop=1;jettySize=auto;html=1;exitX=0.5;exitY=1;exitDx=0;exitDy=0;entryX=0.433;entryY=-0.033;entryDx=0;entryDy=0;entryPerimeter=0;" edge="1" parent="1" source="J3xcKLLVkfX4c4wHD3-W-7" target="J3xcKLLVkfX4c4wHD3-W-11">
          <mxGeometry relative="1" as="geometry">
            <Array as="points">
              <mxPoint x="202" y="360" />
            </Array>
          </mxGeometry>
        </mxCell>
      </root>
    </mxGraphModel>
  </diagram>
</mxfile>
